<?xml version="1.0" standalone="no"?>
<!DOCTYPE svg PUBLIC "-//W3C//DTD SVG 20010904//EN"
 "http://www.w3.org/TR/2001/REC-SVG-20010904/DTD/svg10.dtd">
<svg version="1.0" xmlns="http://www.w3.org/2000/svg"
 width="175.000000pt" height="175.000000pt" viewBox="0 0 175.000000 175.000000"
 preserveAspectRatio="xMidYMid meet">
<metadata>
Created by potrace 1.14, written by Peter Selinger 2001-2017
</metadata>
<g transform="translate(0.000000,175.000000) scale(0.100000,-0.100000)"
fill="#000000" stroke="none">
<path d="M87 1733 c5 -12 3 -14 -7 -8 -9 5 -11 4 -6 -3 4 -6 1 -22 -6 -34 -6
-13 -13 -32 -15 -43 -2 -10 -7 -22 -11 -25 -4 -3 -8 -16 -10 -30 -1 -13 -6
-27 -10 -30 -11 -8 -17 -85 -17 -230 0 -137 4 -175 23 -220 5 -14 8 -28 6 -32
-6 -9 87 -98 102 -98 7 0 10 -33 10 -102 -1 -57 1 -110 5 -118 4 -8 8 -49 10
-90 2 -41 7 -77 11 -80 3 -3 8 -23 10 -45 2 -22 6 -42 10 -45 4 -3 9 -17 10
-30 2 -14 5 -27 8 -30 3 -3 15 -25 26 -50 39 -80 81 -129 137 -155 76 -37 116
-41 164 -16 l41 20 83 -49 c45 -27 95 -52 111 -55 15 -4 30 -11 33 -16 12 -18
97 -9 156 17 57 26 78 27 64 5 -3 -6 -12 -11 -20 -11 -20 0 -117 -38 -138 -54
-10 -8 -22 -28 -27 -45 -8 -29 -7 -31 16 -31 14 0 23 4 20 9 -12 19 6 42 28
36 11 -2 15 -2 9 1 -19 9 -16 22 7 29 12 4 28 1 36 -6 12 -10 18 -9 32 4 9 10
11 17 5 17 -6 0 -13 -6 -16 -12 -2 -7 -8 -9 -13 -5 -10 10 17 28 33 22 6 -2
17 3 24 12 12 13 14 13 20 -4 8 -23 -8 -44 -28 -36 -11 4 -14 2 -9 -5 4 -7 1
-12 -9 -12 -12 0 -14 -4 -5 -19 7 -14 6 -21 -3 -24 -6 -3 70 -5 171 -5 105 0
182 3 182 9 0 5 12 9 28 9 15 0 36 7 46 15 10 8 23 12 28 9 5 -3 18 2 29 12
10 9 22 14 26 10 4 -4 1 -11 -6 -15 -9 -6 -5 -8 12 -8 23 0 24 1 11 15 -14 13
-14 16 0 30 14 14 18 14 39 -6 33 -31 43 -27 12 4 -25 25 -26 27 -9 52 10 15
26 35 37 45 11 9 16 17 11 17 -6 0 -15 -5 -22 -12 -9 -9 -12 -8 -12 5 0 9 5
17 12 17 6 0 8 3 5 7 -4 3 -18 -4 -32 -17 -26 -25 -25 -25 -29 23 -1 6 -5 15
-11 19 -5 4 12 8 39 8 27 0 47 -3 43 -6 -3 -4 1 -13 9 -22 9 -8 13 -23 11 -33
-3 -11 -1 -19 4 -19 5 0 9 -5 9 -11 0 -6 -8 -8 -18 -5 -12 4 -26 -1 -37 -14
-18 -20 -18 -21 10 -50 16 -17 34 -30 39 -29 6 0 5 3 -1 6 -23 9 -14 25 10 17
l22 -6 -22 19 c-27 24 -28 29 -7 37 8 3 12 2 9 -4 -4 -6 1 -17 10 -26 9 -9 14
-23 11 -30 -4 -9 2 -14 17 -15 14 0 17 -3 8 -6 -9 -4 -2 -10 20 -18 19 -6 37
-10 42 -8 14 8 7 32 -11 37 -13 4 -28 34 -47 89 -39 113 -53 127 -130 127
l-62 0 -12 41 c-7 23 -15 47 -18 55 -5 13 9 22 67 39 20 6 23 5 13 -6 -7 -7
-13 -19 -13 -26 0 -19 106 -17 169 4 l52 16 -2 44 c-2 23 -7 43 -12 43 -5 0
-7 -6 -4 -14 8 -22 -17 -40 -32 -23 -8 11 -5 19 12 35 13 12 26 20 29 17 2 -3
5 2 5 10 0 18 -14 20 -20 3 -2 -7 -8 -10 -12 -6 -11 10 15 39 28 31 12 -7 1
14 -21 40 -8 9 -12 20 -9 24 4 4 13 -1 20 -11 12 -16 13 -16 13 3 0 11 -3 18
-7 16 -3 -3 -16 6 -28 19 -13 13 -18 26 -14 29 5 3 16 -3 23 -14 21 -28 26
-24 26 26 0 50 -5 54 -26 26 -7 -11 -18 -17 -23 -14 -4 3 1 16 14 29 12 13 27
20 33 17 6 -4 3 6 -8 21 -13 21 -14 28 -5 24 12 -5 15 13 16 91 1 78 0 88 -7
53 -8 -39 -29 -76 -70 -125 -8 -10 -29 -24 -46 -32 -24 -10 -39 -28 -59 -71
-15 -33 -39 -84 -53 -114 -56 -117 -203 -229 -467 -355 -186 -88 -197 -92
-235 -65 -15 11 -31 20 -35 20 -16 0 -174 101 -216 139 -60 52 -145 177 -169
246 -10 30 -28 108 -39 174 -11 66 -23 132 -27 146 -5 20 -3 24 10 19 14 -5
16 2 16 50 0 47 3 58 24 71 37 25 87 21 140 -10 l47 -28 -15 38 c-19 46 -15
53 26 51 18 -1 43 4 55 12 12 7 28 10 34 6 7 -4 9 -3 6 3 -4 7 11 16 37 24 25
7 42 17 40 21 -3 4 0 8 5 8 6 0 45 32 86 71 48 46 80 69 90 65 8 -3 15 -1 15
4 0 6 14 10 30 10 17 0 30 -5 30 -11 0 -5 4 -8 10 -4 5 3 35 -9 66 -27 l57
-32 -22 40 c-27 47 -73 78 -118 79 -33 1 -60 15 -29 15 9 0 14 5 11 10 -3 6 2
10 12 10 15 0 16 2 3 10 -13 9 -7 14 12 11 4 0 5 5 2 13 -3 7 2 19 11 26 8 7
15 16 15 21 0 5 12 28 27 52 16 23 33 53 39 67 12 24 12 23 10 -12 -1 -20 1
-35 6 -32 7 5 12 -32 11 -88 0 -10 3 -18 7 -18 4 0 13 -19 20 -42 33 -113 117
-250 177 -289 15 -11 42 -19 60 -19 l32 0 -21 38 c-20 34 -20 36 -2 21 17 -15
95 -56 138 -72 15 -6 14 -3 -3 22 -26 36 -26 45 -2 31 11 -5 36 -10 57 -10 36
0 37 0 19 -20 -18 -20 -29 -113 -11 -103 5 4 7 -1 3 -10 -4 -11 -2 -14 7 -11
7 3 17 -1 23 -8 15 -19 12 -48 -6 -49 -11 0 -12 -2 -3 -6 18 -7 4 -23 -16 -17
-14 5 -15 4 -2 -5 12 -8 12 -13 2 -23 -18 -18 -15 -34 9 -35 12 -1 19 1 15 4
-3 3 4 14 16 24 11 11 18 19 14 19 -3 0 0 12 8 28 12 23 12 31 1 52 -7 14 -11
29 -8 35 4 5 3 7 -2 3 -10 -10 -35 10 -35 28 0 21 12 17 47 -14 30 -28 31 -28
29 -6 0 12 -4 20 -8 17 -5 -2 -8 3 -8 12 0 9 -4 14 -9 11 -5 -3 -14 1 -21 9
-10 12 -10 18 0 30 13 15 35 21 27 8 -3 -5 8 -9 24 -10 29 -2 39 10 19 22 -6
4 -8 10 -6 14 3 4 -14 8 -37 10 -47 2 -65 20 -40 39 50 37 93 -5 100 -96 7
-98 14 -71 12 46 -1 104 -3 112 -19 107 -21 -7 -90 48 -78 61 4 4 21 -7 37
-25 29 -31 54 -44 31 -16 -7 9 -10 18 -6 22 3 4 13 -2 21 -13 13 -18 14 -18
12 3 0 12 -4 20 -8 18 -3 -3 -16 6 -28 19 -13 13 -18 26 -14 29 5 3 16 -3 23
-14 21 -28 26 -24 26 26 0 50 -5 54 -26 26 -7 -11 -18 -17 -23 -14 -4 3 1 16
14 29 12 13 26 21 31 17 6 -3 5 4 -1 15 -14 26 -14 35 0 26 22 -13 -9 31 -50
70 -22 22 -38 43 -35 48 3 5 25 -12 49 -38 35 -36 44 -42 42 -25 0 11 -3 18
-6 16 -2 -3 -10 0 -18 6 -9 8 -10 15 -3 24 8 9 8 15 0 20 -8 5 -8 11 1 21 6 7
15 11 20 8 5 -3 6 2 3 10 -5 13 -12 10 -34 -14 -16 -17 -31 -27 -34 -22 -7 12
58 74 69 65 12 -11 -5 19 -23 40 -8 9 -12 20 -9 24 4 4 13 -1 20 -11 12 -16
13 -16 13 3 0 11 -3 18 -7 16 -3 -2 -21 11 -39 30 -19 19 -38 35 -43 35 -5 0
5 -14 23 -30 18 -17 30 -34 26 -37 -3 -4 -23 10 -44 30 -21 20 -42 37 -47 37
-6 0 -3 -4 5 -10 8 -5 11 -12 7 -16 -4 -4 -16 1 -27 11 -20 18 -21 18 -48 -8
-16 -15 -31 -24 -35 -21 -4 4 2 15 13 24 20 17 20 18 -6 18 -16 0 -21 -3 -14
-8 8 -5 8 -10 2 -14 -5 -3 -15 1 -22 9 -7 8 -17 15 -22 15 -6 0 4 -13 21 -29
17 -16 28 -32 23 -35 -5 -3 -23 10 -41 28 -42 44 -78 43 -125 -3 -20 -19 -39
-32 -42 -28 -4 3 7 19 24 35 l31 29 -44 0 c-44 0 -44 0 -24 -18 11 -9 16 -20
11 -23 -5 -3 -20 6 -32 19 -13 14 -28 25 -33 25 -5 0 5 -14 23 -30 18 -17 30
-34 26 -37 -3 -4 -23 10 -44 30 -21 20 -42 37 -47 37 -6 0 -3 -4 5 -10 8 -5
11 -12 7 -16 -4 -4 -15 0 -24 8 -10 8 -38 15 -62 15 -24 1 -40 -2 -35 -6 5 -3
10 -13 12 -21 3 -10 -4 -8 -20 8 -34 31 -45 28 -13 -4 15 -15 24 -33 21 -41
-3 -8 -6 -20 -6 -26 0 -7 -5 -6 -12 2 -11 11 -10 14 0 18 10 4 4 15 -19 39
-18 19 -38 34 -43 34 -6 0 -4 -4 4 -10 8 -5 11 -12 7 -16 -4 -4 -15 0 -25 9
-10 10 -23 17 -28 17 -5 0 -2 -4 6 -10 8 -5 11 -12 7 -16 -4 -4 -15 0 -24 8
-23 19 -107 22 -90 3 7 -7 13 -9 15 -4 2 5 11 9 19 9 14 0 13 -3 -2 -20 l-18
-20 -27 25 c-14 14 -30 25 -34 25 -5 0 6 -13 23 -29 17 -16 28 -32 23 -35 -5
-3 -24 10 -42 29 -19 19 -39 35 -44 35 -6 0 -4 -4 4 -10 8 -5 11 -12 7 -16 -4
-4 -16 1 -27 11 -19 17 -21 17 -64 -23 -31 -29 -41 -43 -33 -51 6 -6 7 -14 3
-18 -7 -7 -26 14 -26 29 0 4 15 23 34 41 l34 34 -44 0 c-43 0 -43 0 -23 -18
11 -9 16 -20 11 -23 -5 -3 -20 6 -32 19 -13 14 -28 25 -33 25 -5 0 5 -13 23
-30 18 -16 26 -30 19 -30 -7 0 -28 14 -46 32 -32 31 -33 31 -53 13 -11 -10
-23 -15 -27 -11 -4 4 -1 11 7 16 8 6 10 10 4 10 -6 0 -21 -11 -34 -25 -12 -13
-27 -22 -32 -19 -5 3 0 14 12 24 20 17 20 18 -6 18 -16 0 -21 -3 -14 -8 8 -5
8 -10 2 -14 -5 -3 -15 1 -22 9 -7 8 -17 15 -22 15 -6 0 4 -13 21 -29 17 -16
28 -32 23 -35 -5 -3 -24 10 -42 29 -19 19 -39 35 -44 35 -6 0 -4 -4 4 -10 8
-5 11 -12 7 -16 -3 -4 -14 -1 -23 7 -21 17 -144 22 -144 6 0 -7 -4 -7 -12 1
-7 7 -16 12 -21 12 -5 0 5 -13 22 -29 17 -16 27 -32 22 -35 -5 -3 -23 10 -40
29 -22 25 -39 35 -60 35 -24 0 -29 -3 -24 -17z m128 -3 c-3 -5 1 -10 10 -10 9
0 13 -4 10 -10 -3 -5 -2 -10 4 -10 5 0 11 6 14 13 2 6 8 8 13 4 5 -5 -2 -17
-15 -29 -20 -16 -22 -21 -11 -28 8 -5 11 -12 7 -16 -4 -4 -14 1 -21 12 -10 13
-11 21 -3 26 8 5 6 13 -6 26 -9 10 -14 22 -10 25 10 10 15 8 8 -3z m45 6 c0
-11 -19 -15 -25 -6 -3 5 1 10 9 10 9 0 16 -2 16 -4z m33 -8 c4 -10 8 -10 15 1
8 11 15 9 37 -13 15 -15 24 -30 21 -34 -4 -3 -11 0 -16 8 -5 8 -12 11 -17 7
-4 -5 -1 -12 7 -18 13 -8 13 -10 0 -18 -8 -6 -11 -13 -7 -18 5 -4 12 -1 17 6
7 12 11 11 25 -3 10 -9 14 -20 11 -24 -4 -3 -11 0 -16 8 -5 8 -12 11 -17 7 -4
-5 -1 -12 7 -17 8 -5 11 -12 7 -17 -5 -4 -12 -1 -18 7 -8 13 -10 13 -18 0 -6
-8 -13 -11 -18 -7 -4 5 -1 12 7 17 8 5 11 12 7 17 -5 4 -12 1 -17 -7 -5 -8
-12 -11 -17 -7 -4 5 -1 12 7 17 8 5 11 12 7 16 -4 4 -16 -3 -27 -16 -11 -13
-23 -20 -27 -16 -4 4 -1 11 7 17 13 8 13 10 0 18 -12 8 -10 13 10 32 17 14 21
23 13 26 -15 5 -17 23 -4 23 5 0 12 -6 14 -12z m294 -24 c28 -29 33 -38 22
-45 -12 -8 -12 -10 1 -18 8 -6 11 -13 7 -17 -4 -4 -16 3 -27 16 -11 13 -23 20
-27 16 -4 -4 -1 -11 7 -16 8 -5 11 -12 7 -17 -5 -4 -12 -1 -18 7 -8 13 -10 13
-18 0 -6 -8 -13 -11 -18 -7 -4 5 -1 12 7 18 13 8 13 10 0 19 -13 9 -13 11 0
19 8 6 11 13 7 18 -5 4 -12 1 -17 -7 -5 -8 -12 -11 -15 -8 -6 5 32 55 43 57 1
1 19 -15 39 -35z m93 32 c0 -11 -19 -15 -25 -6 -3 5 1 10 9 10 9 0 16 -2 16
-4z m87 -22 c14 -14 22 -28 19 -32 -4 -3 -11 0 -16 8 -5 8 -12 11 -17 7 -4 -5
-1 -12 7 -18 13 -8 13 -10 0 -18 -8 -6 -11 -13 -7 -18 5 -4 12 -1 17 6 7 12
11 11 25 -3 10 -9 14 -20 11 -24 -4 -3 -11 0 -16 8 -5 8 -12 11 -17 7 -4 -5
-1 -12 7 -17 8 -5 11 -12 7 -17 -5 -4 -12 -1 -18 7 -8 13 -10 13 -18 0 -6 -8
-13 -11 -18 -7 -4 5 -1 12 7 18 13 8 13 10 0 19 -13 9 -13 11 0 19 8 6 11 13
7 18 -5 4 -12 1 -18 -7 -8 -13 -10 -13 -18 0 -6 8 -13 11 -18 7 -4 -5 -1 -12
7 -17 8 -5 11 -12 8 -16 -4 -3 -14 1 -23 10 -15 14 -13 18 17 50 18 19 34 35
36 35 2 1 14 -11 29 -25z m196 -9 c4 -6 10 -5 16 4 8 12 12 12 26 -3 10 -9 14
-20 11 -24 -4 -3 -11 0 -16 8 -5 8 -12 11 -17 7 -4 -5 -1 -12 7 -18 13 -8 13
-10 0 -18 -8 -6 -11 -13 -7 -18 5 -4 12 -1 18 7 8 13 10 13 18 0 6 -8 13 -11
18 -7 4 5 1 12 -7 17 -8 5 -11 12 -7 16 4 4 16 -3 27 -16 24 -28 25 -31 5 -24
-8 4 -15 2 -15 -4 0 -6 5 -12 11 -14 6 -2 -2 -17 -18 -33 -15 -17 -28 -36 -29
-42 -2 -27 -4 -33 -12 -33 -15 0 -133 118 -124 124 5 3 33 -19 62 -49 30 -30
58 -55 63 -55 5 0 4 6 -2 14 -9 11 -9 15 1 19 10 4 10 8 -2 16 -13 10 -13 12
0 20 8 6 11 13 7 18 -5 4 -12 1 -17 -7 -5 -8 -12 -11 -17 -7 -4 5 -1 12 7 17
8 5 11 12 7 17 -5 4 -12 1 -17 -7 -5 -8 -12 -11 -17 -7 -4 5 -1 12 7 18 13 8
13 10 0 19 -13 9 -13 11 0 19 8 6 11 13 7 18 -5 4 -12 1 -17 -7 -5 -8 -12 -11
-17 -7 -4 5 -1 12 7 17 8 5 12 12 8 15 -3 3 -18 -6 -33 -21 -20 -20 -24 -29
-14 -35 8 -4 10 -11 6 -15 -4 -4 -13 1 -21 11 -12 16 -10 22 18 50 31 32 44
32 69 0z m219 13 c15 -18 21 -20 28 -9 6 11 16 5 45 -23 20 -21 34 -40 30 -44
-3 -3 -10 0 -15 8 -5 8 -12 11 -17 7 -4 -5 -1 -12 7 -17 8 -5 11 -12 7 -17 -5
-4 -12 -1 -18 7 -8 13 -10 13 -19 0 -9 -13 -11 -13 -19 0 -8 12 -13 10 -31
-10 -27 -31 -40 -14 -35 42 2 21 -1 38 -6 38 -5 0 -4 9 3 20 16 25 16 25 40
-2z m148 18 c0 -11 -19 -15 -25 -6 -3 5 1 10 9 10 9 0 16 -2 16 -4z m73 -8 c4
-10 8 -10 15 1 9 12 19 5 56 -34 25 -26 44 -51 41 -54 -3 -3 -24 14 -46 37
-37 40 -41 42 -56 26 -13 -13 -14 -17 -3 -24 11 -7 10 -12 -4 -25 -9 -10 -20
-14 -24 -11 -3 4 0 11 8 16 8 5 11 12 7 17 -5 4 -12 1 -18 -7 -8 -13 -10 -13
-18 0 -6 8 -13 11 -18 7 -4 -5 -1 -12 7 -17 8 -5 11 -12 8 -16 -4 -3 -14 1
-23 10 -15 14 -13 18 17 50 37 38 44 42 51 24z m199 -10 c15 -18 21 -20 27 -9
7 10 20 2 55 -33 l47 -46 -44 -44 c-39 -38 -46 -42 -62 -30 -10 8 -15 17 -11
21 4 4 11 1 16 -7 5 -8 12 -11 17 -7 4 5 1 12 -7 18 -13 8 -13 10 0 18 8 6 11
13 7 18 -5 4 -12 1 -17 -7 -5 -8 -12 -11 -17 -7 -4 5 -1 12 7 17 8 5 11 12 7
17 -5 4 -12 1 -17 -7 -5 -8 -12 -11 -17 -7 -4 5 -1 12 7 18 13 8 13 10 0 19
-13 9 -13 11 0 19 8 6 11 13 7 18 -5 4 -12 1 -17 -7 -5 -8 -12 -11 -17 -7 -4
5 -1 12 7 17 8 5 12 12 8 15 -3 3 -18 -6 -33 -20 -14 -15 -23 -30 -20 -33 3
-4 10 0 15 8 5 8 12 11 16 7 4 -4 -2 -15 -14 -25 l-22 -19 102 -97 c79 -76 98
-100 87 -107 -12 -8 -12 -10 0 -18 11 -7 6 -17 -23 -46 -21 -20 -40 -34 -44
-30 -4 4 8 20 27 37 26 24 31 32 20 39 -12 8 -12 10 0 18 10 7 4 18 -29 47
-114 103 -159 151 -147 163 8 8 8 14 0 22 -8 8 -3 20 20 44 18 19 34 34 36 34
2 1 12 -9 23 -21z m-1343 -110 c61 -61 111 -113 111 -115 0 -17 -58 36 -198
179 -14 15 -28 25 -31 22 -3 -3 1 -9 9 -15 13 -8 13 -10 0 -19 -13 -9 -13 -11
0 -19 8 -6 11 -13 7 -18 -5 -4 -12 -1 -17 7 -5 8 -12 11 -17 7 -4 -5 -1 -12 6
-17 12 -7 11 -11 -3 -26 -15 -14 -19 -15 -27 -3 -12 19 -11 25 7 43 8 9 13 20
9 26 -3 6 1 7 9 4 9 -3 16 -1 16 5 0 6 -5 11 -10 11 -6 0 -5 8 2 20 7 11 14
20 14 20 1 0 52 -50 113 -112z m152 81 c41 -44 36 -59 -6 -18 -33 32 -43 49
-29 49 3 0 19 -14 35 -31z m89 22 c0 -6 -10 -17 -22 -25 -12 -9 -18 -19 -14
-23 4 -4 11 -1 16 6 7 12 11 11 25 -2 15 -16 15 -18 0 -33 -9 -9 -19 -13 -23
-10 -3 4 0 11 8 16 8 5 11 12 7 17 -5 4 -12 1 -17 -6 -7 -12 -11 -12 -25 2
-15 15 -14 18 7 41 24 26 38 32 38 17z m336 -28 c25 -27 31 -39 21 -45 -8 -6
8 -28 56 -75 45 -43 64 -69 56 -73 -6 -4 -9 -13 -5 -19 5 -7 1 -8 -10 -4 -13
5 -15 2 -11 -13 7 -20 -28 -72 -40 -60 -4 4 -1 11 6 16 12 7 11 11 -2 25 -19
19 -20 24 -7 45 5 8 12 11 16 7 4 -4 3 -12 -4 -19 -8 -8 -7 -15 4 -26 8 -8 18
-11 22 -8 3 4 0 11 -8 17 -13 8 -13 10 -1 18 12 8 12 11 -1 25 -9 8 -18 13
-20 11 -3 -3 -5 2 -5 10 0 8 4 12 9 9 4 -3 8 2 8 11 0 10 -5 13 -12 9 -7 -4
-8 -3 -4 4 4 7 1 12 -7 12 -10 0 -13 -7 -10 -18 2 -10 -4 -26 -15 -35 -16 -15
-21 -16 -31 -3 -9 10 -9 16 -1 21 8 5 8 11 0 20 -7 9 -6 16 4 24 10 8 16 9 21
1 3 -5 1 -10 -4 -10 -6 0 -11 -5 -11 -12 0 -7 7 -5 18 6 12 14 14 20 4 23 -6
3 -10 9 -6 14 12 20 -10 7 -36 -21 -16 -17 -31 -27 -34 -22 -3 5 8 22 24 37
22 21 27 31 18 37 -10 6 -10 10 0 17 10 6 6 15 -17 37 -29 27 -39 44 -25 44 4
0 22 -17 40 -37z m211 22 c8 -9 13 -19 9 -22 -7 -7 -36 16 -36 28 0 13 10 11
27 -6z m513 -137 c95 -95 128 -133 118 -140 -11 -6 -10 -10 1 -17 11 -7 9 -14
-13 -36 -15 -15 -30 -24 -34 -21 -3 4 0 11 8 16 12 7 10 13 -10 30 -20 17 -22
23 -10 30 8 5 11 12 7 17 -5 4 -12 1 -17 -6 -7 -12 -11 -11 -25 3 -10 9 -14
20 -11 24 4 3 11 0 16 -8 5 -8 12 -11 16 -8 3 4 -5 18 -19 32 -18 18 -24 32
-20 47 4 15 3 20 -6 15 -6 -4 -8 -13 -5 -19 4 -7 4 -9 -1 -5 -4 4 -13 4 -20
-2 -8 -7 -11 0 -9 25 2 19 -1 35 -7 35 -6 0 -7 5 -4 10 13 21 -8 9 -35 -20
-16 -17 -31 -27 -34 -22 -3 5 8 21 24 37 26 25 27 29 14 43 -14 13 -17 13 -25
1 -8 -12 -10 -12 -18 1 -6 8 -13 11 -18 7 -4 -5 -1 -12 7 -17 8 -5 11 -12 7
-17 -5 -4 -12 -1 -18 7 -8 13 -10 13 -18 0 -6 -8 -13 -11 -17 -8 -4 4 8 22 27
39 21 20 29 34 22 36 -12 4 -19 23 -9 23 2 0 63 -59 136 -132z m-1153 86 c14
-14 23 -28 20 -31 -6 -5 -57 41 -57 52 0 11 12 4 37 -21z m410 11 c8 -9 13
-19 10 -22 -6 -5 -37 21 -37 31 0 10 11 6 27 -9z m110 -1 c13 -13 14 -17 3
-24 -11 -7 -6 -16 20 -40 18 -17 30 -33 27 -36 -3 -3 -22 11 -43 31 -29 30
-34 39 -23 47 11 7 11 11 2 15 -13 5 -18 23 -7 23 3 0 13 -7 21 -16z m386 -22
c-9 -6 -1 -19 27 -47 21 -21 37 -42 34 -46 -3 -5 -21 8 -41 27 -25 26 -37 47
-39 72 -2 33 -1 34 14 18 13 -13 14 -19 5 -24z m-1044 -83 c56 -56 99 -104 96
-107 -3 -4 -10 0 -15 8 -5 8 -12 11 -17 7 -4 -5 -1 -12 7 -18 13 -8 13 -10 0
-19 -13 -9 -13 -11 -1 -19 12 -8 12 -12 -3 -26 -9 -10 -20 -14 -24 -11 -3 4 0
11 8 17 13 8 13 10 0 19 -13 9 -13 11 0 19 8 6 11 13 7 18 -5 4 -12 1 -17 -7
-5 -8 -12 -11 -17 -7 -4 5 -1 12 6 17 11 6 9 13 -12 34 -18 18 -24 32 -20 47
4 15 3 20 -6 15 -6 -4 -9 -11 -7 -15 3 -4 -1 -8 -9 -8 -8 0 -15 7 -15 14 0 8
5 11 10 8 6 -3 10 -1 10 4 0 6 -5 11 -11 11 -5 0 -7 5 -4 10 9 15 -4 12 -21
-4 -15 -16 -19 -30 -6 -22 5 3 9 -1 9 -9 0 -8 -4 -12 -9 -9 -4 3 -8 0 -8 -5 0
-6 5 -11 11 -11 5 0 7 -5 4 -10 -5 -8 -11 -7 -21 1 -10 8 -11 15 -4 24 8 9 8
15 0 20 -8 5 -4 15 11 31 12 13 19 24 15 24 -4 0 -21 -14 -36 -30 -16 -17 -31
-27 -34 -22 -3 5 8 22 24 37 29 28 29 28 10 45 -18 16 -26 30 -17 30 2 0 50
-46 106 -101z m1321 92 c0 -5 -6 -11 -12 -14 -9 -3 -5 -11 11 -26 13 -11 22
-24 18 -27 -3 -3 -18 6 -32 20 -22 22 -24 28 -13 41 15 16 28 19 28 6z m-1071
-74 c34 -32 61 -60 61 -63 0 -15 -27 3 -75 51 -30 30 -58 55 -62 55 -4 0 8
-15 25 -33 18 -18 29 -36 26 -40 -4 -3 -19 6 -33 22 l-27 28 -24 -27 c-14 -16
-29 -26 -33 -23 -9 5 64 92 75 89 3 0 34 -27 67 -59z m181 48 c17 -21 5 -31
-15 -12 -8 9 -15 18 -15 21 0 11 18 6 30 -9z m30 5 c0 -5 -4 -10 -10 -10 -5 0
-10 5 -10 10 0 6 5 10 10 10 6 0 10 -4 10 -10z m632 -17 c14 -16 39 -41 56
-57 l32 -30 29 28 c18 17 31 24 35 17 4 -6 2 -11 -3 -11 -6 0 -11 -5 -11 -11
0 -5 4 -8 8 -5 5 3 9 -1 9 -9 0 -8 -4 -12 -9 -9 -4 3 -8 0 -8 -5 0 -6 5 -11
11 -11 5 0 7 -5 4 -10 -5 -8 -11 -7 -21 1 -10 8 -11 15 -4 24 8 9 8 15 0 20
-5 3 -10 -1 -10 -10 0 -9 -4 -13 -10 -10 -22 13 -8 -7 35 -53 25 -26 45 -50
45 -54 0 -13 -20 -9 -21 5 0 10 -2 10 -6 0 -8 -20 -25 -15 -19 5 5 14 -17 41
-89 110 -52 50 -95 93 -95 96 0 14 20 4 42 -21z m18 17 c0 -5 -4 -10 -10 -10
-5 0 -10 5 -10 10 0 6 5 10 10 10 6 0 10 -4 10 -10z m-656 -81 c-6 -11 -74 56
-74 73 0 6 18 -5 40 -27 21 -21 37 -42 34 -46z m-544 66 c0 -11 -51 -57 -57
-52 -3 3 6 17 18 31 23 24 39 32 39 21z m122 -17 c16 -19 21 -20 29 -8 8 13
10 13 18 0 8 -12 13 -11 31 9 11 14 23 22 26 18 3 -3 -6 -18 -21 -33 -21 -21
-29 -24 -35 -13 -5 7 -13 10 -17 5 -4 -5 -2 -11 5 -13 7 -3 19 -12 28 -20 14
-14 18 -13 43 11 l27 26 32 -33 32 -33 -25 -24 c-14 -13 -28 -20 -32 -17 -3 4
4 15 15 26 24 20 31 41 8 22 -12 -10 -13 -8 -9 10 4 15 3 20 -6 15 -6 -4 -8
-12 -5 -18 4 -7 2 -8 -4 -4 -7 4 -12 2 -12 -3 0 -6 5 -11 11 -11 5 0 7 -5 4
-10 -5 -8 -11 -7 -21 1 -10 8 -11 15 -4 24 8 9 8 15 0 20 -5 3 -10 -1 -10 -10
0 -9 -4 -13 -10 -10 -20 12 -9 -6 25 -42 30 -32 43 -53 32 -53 -4 0 -187 181
-187 185 0 11 14 3 32 -17z m221 10 c4 -10 8 -10 15 1 9 12 13 12 28 -3 14
-15 15 -19 3 -26 -7 -5 -10 -12 -7 -16 4 -3 18 7 32 22 17 20 25 24 26 14 0
-9 -9 -22 -20 -30 -20 -14 -29 -37 -10 -25 6 3 10 -2 10 -11 0 -15 -4 -14 -27
7 -73 65 -84 79 -64 79 5 0 12 -6 14 -12z m77 2 c0 -5 -4 -10 -10 -10 -5 0
-10 5 -10 10 0 6 5 10 10 10 6 0 10 -4 10 -10z m230 5 c0 -11 -51 -57 -57 -52
-3 3 6 17 18 31 23 24 39 32 39 21z m387 -10 c8 -9 12 -19 9 -23 -4 -3 -11 0
-17 8 -8 13 -10 13 -18 0 -6 -8 -13 -11 -16 -8 -6 6 13 36 23 38 2 0 10 -7 19
-15z m33 5 c0 -5 -4 -10 -10 -10 -5 0 -10 5 -10 10 0 6 5 10 10 10 6 0 10 -4
10 -10z m84 -46 c27 -30 44 -54 38 -54 -7 0 -12 5 -12 11 0 8 -4 8 -14 0 -10
-8 -16 -9 -21 -1 -3 6 -10 8 -14 6 -4 -3 -8 1 -8 9 0 8 4 12 9 9 4 -3 8 0 8 5
0 6 -5 11 -11 11 -5 0 -7 5 -4 10 11 19 -10 10 -25 -9 -7 -11 -18 -17 -23 -14
-4 3 2 16 14 29 12 13 17 24 11 24 -7 0 -12 5 -12 10 0 19 15 8 64 -46z m146
51 c0 -3 -11 -17 -25 -31 -23 -23 -27 -24 -41 -9 -9 9 -13 19 -10 23 4 3 11 0
16 -8 8 -13 12 -11 27 7 17 21 33 30 33 18z m-734 -37 c15 -13 33 -29 41 -36
11 -11 17 -11 28 -2 12 10 15 9 15 -4 0 -10 -4 -14 -10 -11 -19 11 -10 -6 15
-31 29 -29 31 -37 8 -59 -12 -12 -13 -19 -4 -24 8 -5 2 -17 -19 -39 -16 -18
-30 -35 -29 -39 3 -18 -2 -33 -9 -33 -14 0 -132 117 -132 131 0 7 28 -15 63
-49 34 -34 67 -62 72 -62 6 1 -1 10 -14 21 -13 11 -21 23 -17 26 4 4 11 1 16
-7 5 -8 12 -11 17 -7 4 5 1 12 -7 18 -13 8 -13 10 0 18 8 6 11 13 7 18 -5 4
-12 1 -17 -7 -5 -8 -12 -11 -16 -8 -3 4 1 15 11 24 13 14 18 15 25 4 6 -10 14
-7 34 13 l25 25 -69 65 c-64 60 -78 77 -65 77 3 0 17 -10 31 -22z m24 12 c0
-5 -4 -10 -10 -10 -5 0 -10 5 -10 10 0 6 5 10 10 10 6 0 10 -4 10 -10z m500 5
c0 -3 -10 -16 -23 -29 -20 -20 -26 -22 -42 -10 -10 8 -15 17 -11 21 4 4 11 1
16 -7 8 -13 12 -11 25 8 15 20 35 30 35 17z m-547 -84 c-3 -3 -8 0 -10 7 -4 9
-8 10 -18 2 -11 -9 -12 -7 -8 11 4 15 3 20 -6 15 -6 -4 -9 -11 -7 -15 3 -4 -1
-8 -9 -8 -8 0 -15 7 -15 14 0 8 4 12 9 8 5 -3 12 -1 16 5 3 5 0 10 -8 10 -7 0
-14 7 -14 15 0 10 14 3 38 -21 21 -21 36 -40 32 -43z m511 28 c11 9 15 9 19
-1 3 -10 9 -8 25 5 20 18 20 18 15 -3 -4 -16 0 -23 16 -27 11 -3 18 -9 15 -15
-3 -5 -12 -4 -20 3 -10 8 -14 8 -14 0 0 -6 5 -11 11 -11 5 0 7 -5 3 -11 -4 -7
-19 2 -40 22 -19 18 -34 29 -34 25 0 -4 14 -21 31 -37 18 -16 29 -33 25 -36
-3 -4 -28 14 -54 40 -26 26 -52 47 -57 47 -6 0 -3 -4 5 -10 8 -5 11 -12 7 -17
-11 -10 -27 17 -20 34 3 7 0 13 -6 13 -6 0 -11 8 -11 17 0 13 9 9 35 -17 28
-27 37 -31 49 -21z m-1111 15 c23 -21 31 -23 42 -14 12 10 15 9 15 -4 0 -10
-4 -14 -10 -11 -22 14 -8 -9 29 -45 28 -28 36 -41 28 -49 -8 -8 0 -22 26 -49
21 -21 35 -41 31 -45 -12 -11 -85 74 -79 93 4 12 -14 35 -60 78 -36 34 -65 64
-65 67 0 12 17 3 43 -21z m497 0 c0 -8 -5 -12 -10 -9 -6 4 -8 11 -5 16 9 14
15 11 15 -7z m-461 -73 c32 -32 40 -45 31 -51 -10 -6 1 -24 43 -66 31 -32 53
-61 50 -64 -3 -3 -8 1 -10 8 -3 6 -9 10 -14 6 -5 -3 -9 2 -9 11 0 9 -5 13 -10
10 -8 -5 -8 -11 0 -20 7 -9 6 -16 -4 -24 -10 -8 -16 -9 -21 -1 -3 5 -1 10 4
10 6 0 11 5 11 11 0 5 -4 8 -8 5 -5 -3 -9 1 -9 9 0 8 4 12 9 9 4 -3 8 0 8 5 0
6 -5 11 -11 11 -5 0 -7 5 -4 10 13 21 -8 9 -35 -20 -16 -17 -31 -27 -34 -22
-3 5 8 22 24 37 l29 28 -21 19 c-18 15 -19 21 -9 27 10 7 1 20 -35 54 -27 25
-51 44 -53 41 -3 -3 1 -9 9 -15 13 -8 13 -10 0 -18 -12 -8 -11 -13 9 -30 l24
-21 -32 -29 -31 -29 40 -36 c22 -20 40 -38 40 -41 0 -12 -21 -3 -44 20 -14 14
-28 25 -33 25 -4 0 -2 -5 5 -12 8 -8 9 -15 1 -25 -8 -9 -8 -13 0 -13 6 0 11 5
11 11 0 5 5 7 11 3 8 -4 7 -9 -2 -15 -10 -6 -8 -13 11 -29 20 -17 22 -23 10
-30 -11 -7 -7 -15 21 -41 21 -20 29 -34 21 -36 -6 -3 -12 -10 -12 -16 0 -6 11
0 25 13 34 32 44 18 10 -16 -22 -22 -29 -24 -36 -13 -5 8 -6 22 -3 32 3 9 1
17 -4 17 -15 0 -33 -26 -27 -41 3 -8 0 -21 -5 -29 -9 -13 -11 -13 -20 0 -5 8
-7 21 -5 29 3 8 0 18 -7 23 -10 6 -10 10 1 17 12 8 12 11 0 24 -21 20 -19 234
2 248 12 8 12 10 -1 19 -13 8 -13 11 -1 19 7 5 11 13 7 19 -3 6 -3 17 0 26 7
19 14 15 83 -53z m409 11 c8 -7 11 -16 8 -20 -4 -3 -11 0 -16 8 -5 8 -12 11
-16 8 -3 -4 1 -15 11 -24 14 -14 18 -15 25 -3 5 7 12 10 17 6 4 -5 1 -12 -7
-17 -8 -5 -11 -12 -7 -17 5 -4 12 -1 17 7 5 8 12 11 17 7 4 -5 1 -12 -7 -18
-13 -7 -13 -10 -1 -18 9 -6 10 -10 2 -16 -7 -3 -9 -14 -7 -23 7 -21 -9 -49
-18 -34 -3 6 -2 13 4 17 6 4 4 12 -5 22 -9 8 -19 12 -23 9 -3 -4 0 -12 8 -17
11 -8 12 -12 3 -16 -7 -2 -13 -10 -13 -16 0 -5 3 -8 6 -4 8 8 34 -18 34 -34 0
-7 -10 -3 -24 10 -20 19 -23 30 -21 82 1 32 0 59 -2 59 -18 0 -30 -32 -27 -78
1 -28 1 -52 -1 -52 -7 0 -35 32 -35 40 0 5 7 16 17 25 14 14 14 18 2 26 -12 8
-12 10 0 18 12 8 12 12 2 25 -18 21 -34 20 -27 -1 6 -21 -9 -51 -21 -40 -4 5
-1 12 7 18 13 8 13 10 1 18 -12 8 -9 15 17 39 30 29 43 50 22 37 -5 -3 -10 2
-10 11 0 18 3 16 68 -44z m240 -10 c13 -13 21 -26 18 -29 -3 -4 -22 10 -43 30
-20 21 -40 37 -45 37 -4 0 -8 8 -8 17 0 17 10 10 78 -55z m660 -11 c28 -26 32
-35 21 -42 -12 -8 -12 -10 1 -18 8 -6 11 -13 8 -17 -4 -3 -15 1 -24 11 -14 13
-14 19 -4 25 9 6 0 19 -31 49 -24 22 -47 41 -51 41 -5 0 -8 8 -8 17 0 18 11
10 88 -66z m242 63 c0 -8 -5 -12 -10 -9 -6 4 -8 11 -5 16 9 14 15 11 15 -7z
m-1090 -20 c0 -8 -4 -12 -10 -9 -5 3 -10 1 -10 -4 0 -6 5 -11 10 -11 6 0 10
-8 10 -17 0 -15 -3 -14 -22 5 -22 21 -22 22 -3 37 25 18 25 18 25 -1z m-376
-25 c-9 -11 -12 -19 -6 -19 6 0 12 6 14 12 3 9 9 8 22 -5 16 -15 16 -19 2 -32
-13 -14 -18 -12 -41 11 -19 19 -23 29 -15 34 7 4 10 12 6 18 -4 6 2 8 14 5 20
-5 20 -7 4 -24z m436 17 c0 -2 -7 -9 -15 -16 -12 -10 -15 -10 -15 4 0 9 7 16
15 16 8 0 15 -2 15 -4z m30 -4 c0 -13 -49 -56 -56 -49 -3 3 5 17 17 31 25 26
39 32 39 18z m66 -28 c20 -19 33 -38 29 -42 -3 -3 -10 0 -15 7 -6 11 -14 8
-35 -14 -22 -21 -25 -29 -14 -35 7 -5 10 -12 7 -15 -4 -4 -23 9 -43 29 l-36
36 33 34 c18 19 34 35 36 35 1 1 19 -15 38 -35z m470 -10 c25 -25 43 -48 39
-52 -3 -3 -10 0 -15 7 -7 12 -11 11 -26 -3 -14 -15 -15 -19 -3 -26 7 -5 10
-12 6 -17 -5 -4 -12 -1 -16 6 -5 8 -14 10 -21 6 -9 -5 -11 -4 -6 4 4 6 0 18
-9 27 -9 9 -13 24 -10 32 3 8 0 19 -6 23 -9 5 -8 11 2 23 8 8 15 15 17 16 1 0
23 -21 48 -46z m114 38 c0 -12 -47 -51 -53 -45 -6 6 34 51 46 52 4 1 7 -3 7
-7z m67 -28 c28 -29 33 -38 22 -45 -12 -8 -12 -10 1 -18 8 -6 11 -13 7 -17 -4
-4 -16 3 -27 17 -17 19 -23 21 -30 9 -5 -8 -12 -11 -17 -7 -4 5 -1 12 7 17 8
5 11 12 7 17 -5 4 -12 1 -18 -7 -8 -13 -10 -13 -18 0 -6 8 -13 11 -18 7 -4 -5
-1 -12 7 -17 8 -5 11 -12 8 -16 -4 -3 -14 1 -23 10 -15 14 -13 18 17 50 18 19
34 35 36 35 1 1 19 -15 39 -35z m116 14 c-13 -12 -25 -19 -29 -16 -9 9 18 37
36 38 10 0 8 -6 -7 -22z m-1406 -24 c20 -21 23 -28 12 -34 -11 -7 -9 -13 10
-29 l23 -20 -25 -25 -24 -24 -28 24 -28 24 33 30 33 30 -22 19 c-20 18 -27 31
-16 31 3 0 18 -12 32 -26z m293 -26 c40 -44 46 -55 37 -70 -7 -10 -15 -18 -20
-18 -4 0 -5 -5 -1 -12 4 -7 3 -8 -4 -4 -7 4 -12 1 -12 -9 0 -9 5 -13 11 -10 6
4 5 -2 -3 -14 -15 -25 -21 -26 -37 -7 -8 10 -9 16 -1 21 5 3 10 1 10 -4 0 -6
5 -11 12 -11 9 0 9 3 0 12 -9 9 -7 17 10 35 12 13 17 23 12 23 -5 0 -16 -9
-24 -19 -7 -11 -18 -17 -23 -14 -4 3 2 16 14 29 17 18 25 21 36 13 17 -15 17
-1 -1 17 -8 7 -17 19 -19 26 -4 10 -8 9 -16 -2 -10 -13 -12 -13 -20 0 -6 8
-13 11 -18 7 -4 -5 -1 -12 7 -17 8 -5 11 -12 8 -16 -4 -3 -14 1 -23 10 -15 15
-15 17 0 33 14 13 18 14 25 2 5 -7 12 -10 16 -6 4 4 -2 14 -14 23 -20 14 -30
34 -16 34 3 0 28 -23 54 -52z m450 42 c0 -5 -4 -10 -10 -10 -5 0 -10 5 -10 10
0 6 5 10 10 10 6 0 10 -4 10 -10z m690 1 c0 -5 -6 -11 -12 -14 -9 -3 -5 -11
11 -26 13 -11 22 -24 18 -27 -3 -3 -18 6 -32 20 -22 22 -24 28 -13 41 15 16
28 19 28 6z m-255 -48 c3 -10 1 -19 -5 -21 -7 -3 -5 -11 6 -23 16 -17 16 -19
1 -19 -10 0 -17 5 -17 10 0 6 -11 0 -25 -14 -25 -25 -34 -42 -15 -31 6 3 10
-1 10 -10 0 -9 -4 -13 -10 -10 -19 11 -10 -6 15 -31 14 -14 25 -20 25 -14 0 6
5 8 10 5 8 -5 7 -11 -1 -21 -8 -10 -15 -11 -24 -4 -6 5 -16 6 -20 2 -5 -4 -5
-2 -2 4 4 6 -2 19 -13 29 -15 14 -17 21 -9 32 11 12 5 17 -16 13 -5 -1 9 18
33 43 29 30 41 49 36 60 -3 9 -2 17 4 17 5 0 13 -8 17 -17z m-423 -20 c-10 -4
-10 -8 -1 -19 16 -19 4 -30 -14 -13 -10 10 -11 18 -3 35 8 16 14 20 21 12 7
-7 6 -12 -3 -15z m-613 -19 c18 -19 30 -38 28 -41 -6 -5 -77 62 -77 72 0 14
20 2 49 -31z m18 21 c8 -9 13 -19 10 -22 -6 -5 -37 21 -37 31 0 10 11 6 27 -9z
m133 -10 c0 -11 -68 -74 -74 -68 -3 3 9 21 27 39 30 31 47 41 47 29z m840 -5
c0 -5 -4 -10 -10 -10 -5 0 -10 5 -10 10 0 6 5 10 10 10 6 0 10 -4 10 -10z
m183 -106 c64 -64 117 -111 117 -106 0 6 -6 13 -12 15 -10 4 -9 8 2 16 13 10
13 12 0 20 -8 6 -11 13 -7 18 5 4 12 1 18 -7 8 -13 10 -13 19 0 9 13 11 13 19
0 6 -8 13 -11 18 -7 4 5 1 12 -7 18 -13 8 -13 10 0 18 8 6 11 13 7 18 -5 4
-12 1 -17 -7 -5 -8 -13 -11 -17 -6 -4 5 -2 11 5 13 10 4 10 8 1 19 -21 25 -5
23 25 -3 23 -19 26 -27 15 -33 -11 -7 -8 -13 11 -30 20 -18 22 -23 10 -30 -8
-5 -24 -7 -34 -4 -15 5 -18 3 -13 -10 4 -11 3 -15 -4 -11 -5 4 -7 15 -4 26 7
22 -1 25 -20 6 -8 -8 -11 -29 -9 -53 3 -25 1 -34 -5 -25 -5 7 -13 11 -19 7 -5
-3 -19 3 -31 13 -24 21 -29 41 -6 21 8 -7 15 -9 15 -4 0 10 -176 184 -186 184
-3 0 -1 -6 5 -14 9 -10 9 -16 1 -21 -8 -5 -8 -10 0 -20 8 -9 8 -15 0 -20 -5
-3 -10 2 -10 11 0 15 -3 15 -23 -5 -21 -19 -26 -20 -36 -7 -9 10 -9 16 -1 21
8 5 8 11 0 20 -14 16 11 40 27 24 7 -7 14 -4 24 7 11 13 11 18 2 21 -14 5 -18
23 -5 23 5 0 61 -52 125 -116z m-70 104 c4 -10 8 -10 15 1 9 12 13 12 28 -3
14 -15 15 -19 3 -26 -7 -5 -10 -12 -6 -16 3 -4 15 4 26 17 11 13 23 21 27 17
4 -5 -3 -16 -14 -27 -22 -19 -31 -37 -12 -26 6 3 10 -2 10 -11 0 -16 1 -16 20
1 19 17 20 17 20 1 0 -9 -4 -14 -10 -11 -19 11 -10 -10 9 -25 11 -7 18 -17 15
-22 -11 -17 8 -7 31 17 24 23 33 41 18 32 -10 -6 -53 39 -46 47 4 3 17 -4 30
-16 13 -12 23 -16 23 -10 0 7 -5 12 -11 12 -5 0 -7 5 -4 10 5 8 11 8 20 0 10
-8 14 -7 18 2 3 9 14 4 35 -16 26 -24 34 -27 47 -16 12 10 15 10 15 -4 0 -10
-4 -14 -10 -11 -19 12 -10 -11 10 -25 20 -15 28 -34 11 -28 -5 2 -30 23 -56
46 -38 36 -48 42 -61 32 -10 -9 -11 -16 -4 -25 8 -9 2 -20 -21 -40 -26 -21
-30 -29 -19 -35 8 -5 12 -11 9 -14 -5 -5 -189 170 -189 179 0 11 19 4 23 -7z
m166 -27 c-7 -2 -15 1 -17 8 -2 6 -8 11 -13 11 -6 0 -8 -4 -5 -9 4 -5 0 -11
-6 -14 -9 -3 -4 -14 15 -34 23 -25 26 -32 14 -42 -18 -14 -43 9 -26 26 7 7 4
14 -7 24 -13 11 -18 11 -21 1 -3 -6 -9 -9 -15 -6 -5 4 5 21 23 40 31 32 34 33
52 17 13 -13 15 -19 6 -22z m31 24 c17 -21 5 -31 -15 -12 -8 9 -15 18 -15 21
0 11 18 6 30 -9z m37 0 c8 -9 13 -19 10 -22 -6 -5 -37 21 -37 31 0 10 11 6 27
-9z m-848 -103 c3 -2 -1 -7 -8 -11 -7 -5 -11 -14 -7 -20 5 -7 1 -8 -10 -4 -13
5 -15 2 -10 -14 5 -15 -5 -30 -36 -62 -24 -23 -44 -37 -46 -32 -2 6 -15 -1
-28 -14 -26 -26 -51 -34 -38 -13 5 7 9 21 9 30 2 23 13 34 23 23 4 -4 1 -10
-5 -12 -7 -3 -13 -10 -13 -16 0 -6 10 -1 23 11 18 17 26 19 35 10 7 -7 12 -9
12 -4 0 4 -7 14 -15 22 -24 25 -17 40 8 17 19 -19 24 -20 36 -6 12 13 12 16 0
24 -12 8 -12 11 1 19 13 9 13 11 0 19 -8 6 -11 13 -7 18 5 4 12 1 17 -7 5 -8
12 -11 17 -7 4 5 1 13 -7 18 -11 8 -12 12 -2 16 6 2 12 9 12 14 0 6 -4 7 -10
4 -5 -3 -10 1 -10 10 0 9 -5 13 -10 10 -8 -5 -8 -11 -1 -19 8 -9 1 -22 -24
-46 -25 -24 -36 -29 -39 -19 -8 26 -3 49 12 49 10 0 11 4 6 13 -5 6 -9 21 -8
32 3 62 1 62 61 5 32 -30 60 -56 62 -58z m-399 92 c0 -3 -7 -12 -15 -21 -20
-19 -32 -10 -14 11 14 15 29 21 29 10z m510 -19 c10 -12 9 -15 -4 -15 -11 0
-14 -5 -10 -12 4 -7 3 -8 -4 -4 -7 4 -12 1 -12 -9 0 -9 -4 -13 -10 -10 -5 3
-10 -1 -10 -10 0 -10 -5 -13 -12 -9 -8 5 -9 2 -5 -9 3 -10 2 -17 -3 -17 -18 0
-10 26 15 50 13 12 22 27 19 32 -3 5 -2 8 3 7 20 -3 27 2 13 11 -8 5 -10 10
-4 10 6 0 17 -7 24 -15z m350 -5 c0 -5 -4 -10 -10 -10 -5 0 -10 5 -10 10 0 6
5 10 10 10 6 0 10 -4 10 -10z m-1026 -45 c-2 -19 1 -35 7 -35 6 0 7 -5 4 -11
-5 -7 -16 -2 -31 12 -13 12 -24 19 -24 15 0 -4 39 -48 88 -97 48 -50 88 -93
89 -97 2 -4 -1 -13 -6 -21 -8 -12 -12 -12 -25 -2 -9 8 -16 18 -16 24 0 7 4 7
12 -1 7 -7 16 -12 21 -12 4 0 -18 26 -50 58 -32 32 -75 77 -97 99 l-38 41 33
31 c19 17 34 31 35 31 0 0 -1 -16 -2 -35z m141 19 c12 -13 19 -14 30 -4 12 10
15 9 15 -4 0 -10 -4 -15 -9 -12 -5 4 -11 1 -13 -6 -3 -8 -12 -6 -31 8 -14 10
-27 22 -27 27 0 12 18 8 35 -9z m1390 -8 c0 -18 -3 -22 -13 -14 -9 8 -9 14 -1
24 15 18 14 18 14 -10z m-1383 -41 c5 -6 11 -5 17 5 6 8 13 11 18 7 10 -11
-18 -28 -35 -22 -16 6 -65 -41 -57 -55 3 -6 -1 -7 -9 -4 -9 3 -16 1 -16 -5 0
-6 5 -11 11 -11 5 0 7 -5 4 -10 -4 -6 -21 5 -40 26 l-34 36 25 25 c14 14 28
22 32 18 4 -4 -4 -15 -17 -26 -13 -11 -21 -23 -17 -26 4 -4 11 -1 17 7 8 13
10 13 18 0 6 -8 13 -11 18 -7 4 5 1 12 -6 17 -12 7 -11 11 4 27 13 13 20 14
23 5 4 -14 22 -16 22 -3 0 5 -9 13 -20 16 -11 3 -20 14 -20 22 0 13 6 12 27
-8 15 -13 31 -28 35 -34z m157 14 c-6 -4 -8 -12 -5 -18 10 -16 0 -14 -17 4 -9
8 -13 24 -10 35 5 20 6 20 25 4 13 -12 15 -20 7 -25z m949 -47 c24 -24 41 -46
38 -49 -3 -4 -15 4 -26 16 -18 21 -21 22 -35 7 -15 -15 -15 -17 -1 -32 18 -18
20 -30 6 -39 -6 -4 -7 1 -3 11 5 13 3 16 -10 11 -12 -4 -14 -2 -10 10 5 13 2
15 -11 10 -10 -4 -15 -3 -11 3 3 5 -5 21 -19 35 -30 30 -32 38 -11 59 17 17
20 30 5 21 -5 -3 -10 2 -10 11 0 19 10 12 98 -74z m-874 32 c7 -17 -3 -44 -16
-44 -5 0 -7 -9 -3 -19 3 -11 -1 -26 -10 -35 -9 -9 -14 -20 -10 -26 3 -6 -1 -7
-9 -4 -9 3 -16 1 -16 -5 0 -6 5 -11 12 -11 6 0 1 -11 -12 -25 -25 -26 -40 -32
-40 -14 0 5 5 7 10 4 6 -3 10 1 10 10 0 9 5 13 11 9 7 -4 9 0 5 14 -4 12 -1
26 9 36 9 9 14 20 10 26 -3 5 0 7 8 4 11 -4 15 2 14 23 -1 15 -6 31 -12 36 -6
4 -5 10 4 16 7 5 11 14 7 20 -4 7 -1 9 8 5 8 -3 17 -12 20 -20z m-384 -76 c63
-66 86 -96 79 -104 -7 -9 -3 -17 13 -28 18 -13 20 -18 9 -25 -7 -5 -11 -14 -7
-20 5 -7 1 -9 -8 -5 -19 7 -21 21 -3 27 6 2 8 8 4 13 -5 5 -13 1 -18 -8 -6
-10 -19 -23 -30 -29 -17 -9 -25 -7 -42 12 -11 12 -21 31 -22 43 -2 12 -8 20
-16 18 -8 -2 3 14 23 35 32 34 35 40 21 52 -12 11 -17 11 -23 1 -7 -11 -12
-10 -25 4 -10 9 -14 20 -11 24 4 3 11 0 16 -8 5 -8 12 -12 15 -8 4 3 -12 24
-34 46 -39 39 -48 52 -35 52 3 0 45 -42 94 -92z m1390 62 c0 -5 -4 -10 -10
-10 -5 0 -10 5 -10 10 0 6 5 10 10 10 6 0 10 -4 10 -10z m-900 -19 c0 -5 -6
-12 -12 -14 -10 -4 -9 -8 2 -16 8 -5 11 -13 8 -17 -4 -3 -14 1 -23 10 -13 13
-14 18 -3 30 15 17 28 20 28 7z m-550 -21 c0 -5 -4 -10 -10 -10 -5 0 -10 5
-10 10 0 6 5 10 10 10 6 0 10 -4 10 -10z m500 1 c0 -5 -6 -12 -12 -15 -10 -5
-10 -7 0 -12 14 -7 16 -24 3 -24 -13 0 -21 27 -15 45 7 16 24 21 24 6z m650
-1 c0 -5 -2 -10 -4 -10 -3 0 -8 5 -11 10 -3 6 -1 10 4 10 6 0 11 -4 11 -10z
m26 -6 c-3 -8 1 -26 10 -40 21 -31 5 -31 -18 1 -18 23 -15 55 4 55 6 0 7 -7 4
-16z m-826 -4 c8 -5 11 -13 6 -17 -5 -4 -11 -2 -13 5 -3 6 -9 12 -14 12 -5 0
-2 -11 7 -25 15 -23 15 -25 0 -19 -9 3 -16 10 -16 15 0 5 -5 9 -11 9 -5 0 -8
-4 -5 -9 4 -5 0 -11 -6 -14 -10 -3 -8 -9 5 -23 9 -10 17 -13 17 -7 0 6 -5 13
-12 15 -8 3 -9 6 -1 11 6 4 15 1 21 -6 7 -9 2 -21 -19 -45 -25 -27 -33 -31
-45 -22 -11 10 -14 9 -14 -4 0 -10 -5 -14 -11 -11 -7 5 -3 15 10 29 12 12 18
26 14 31 -5 4 -3 5 4 1 6 -3 14 -2 18 4 3 5 1 10 -5 10 -11 0 16 49 35 62 13
10 17 10 35 -2z m-97 -14 c4 -10 1 -13 -9 -9 -7 3 -14 1 -14 -5 0 -6 4 -12 10
-14 5 -1 -1 -15 -13 -30 l-24 -27 -21 20 c-26 24 -28 31 -5 22 12 -5 15 -2 10
10 -4 10 -2 14 6 11 7 -2 19 5 27 16 17 24 26 25 33 6z m-283 -151 c0 -5 -5
-3 -10 5 -5 8 -10 20 -10 25 0 6 5 3 10 -5 5 -8 10 -19 10 -25z m165 -39 c12
-12 11 -14 -9 -12 -14 0 -22 6 -19 14 6 15 11 15 28 -2z m-57 -47 c-2 -6 7
-12 19 -14 27 -2 39 -12 28 -22 -4 -5 -10 -2 -12 5 -3 6 -9 12 -14 12 -6 0 -7
-4 -4 -10 3 -5 -1 -10 -10 -10 -9 0 -13 -5 -10 -10 5 -8 11 -8 19 -1 17 14 51
-22 43 -43 -4 -9 -1 -18 5 -22 7 -4 6 -9 -3 -14 -9 -6 -9 -12 4 -25 19 -19 20
-24 7 -45 -5 -8 -12 -11 -17 -7 -4 5 -1 12 7 17 8 5 11 12 7 17 -5 4 -12 1
-17 -7 -5 -8 -12 -11 -17 -7 -4 5 -1 12 7 18 13 8 13 10 0 19 -13 9 -13 11 0
19 8 6 12 12 9 15 -3 3 -16 -5 -29 -19 -23 -24 -23 -25 -5 -45 10 -11 15 -23
11 -27 -4 -4 -11 -1 -16 7 -6 8 -10 11 -10 6 0 -6 10 -20 22 -33 12 -13 16
-23 9 -23 -25 0 -43 30 -40 68 2 21 -1 44 -6 52 -5 9 -4 15 4 18 9 3 9 7 1 17
-8 10 -8 15 1 20 8 6 8 10 -2 15 -10 7 -10 12 0 23 9 12 9 16 0 19 -7 2 -9 10
-5 16 9 15 17 16 14 1z m99 -31 c-3 -7 -5 -2 -5 12 0 14 2 19 5 13 2 -7 2 -19
0 -25z m-67 -128 c0 -5 -4 -10 -10 -10 -5 0 -10 5 -10 10 0 6 5 10 10 10 6 0
10 -4 10 -10z m31 -66 c10 -12 10 -17 1 -23 -8 -5 -1 -18 23 -41 21 -20 33
-40 30 -49 -3 -8 0 -18 7 -23 10 -6 10 -10 -1 -17 -12 -8 -12 -12 3 -26 10
-10 14 -25 11 -36 -4 -10 -2 -19 3 -19 13 0 23 -27 16 -45 -4 -8 -11 -12 -16
-9 -6 4 -5 10 3 15 7 4 10 11 6 16 -5 4 -12 1 -17 -7 -5 -8 -12 -11 -17 -7 -4
5 -1 12 7 17 8 5 11 12 7 17 -5 4 -12 1 -17 -7 -5 -8 -12 -11 -17 -7 -4 5 -1
12 7 18 13 8 13 10 0 19 -13 9 -13 11 0 19 8 6 11 13 7 18 -5 4 -12 1 -17 -7
-5 -8 -12 -11 -17 -7 -4 5 -1 12 7 18 13 8 13 10 0 19 -13 9 -13 11 0 21 11 8
12 12 3 16 -7 2 -13 9 -13 15 0 6 6 5 15 -2 9 -7 18 -10 22 -6 4 3 -3 13 -15
21 -11 9 -28 23 -37 32 -15 14 -18 14 -32 1 -10 -11 -11 -18 -4 -22 6 -4 11 0
11 9 0 9 5 13 11 10 7 -5 2 -16 -12 -31 -12 -13 -19 -24 -14 -24 4 0 16 9 25
20 10 12 21 17 24 12 3 -5 -7 -21 -23 -36 -27 -26 -29 -26 -34 -7 -3 12 -1 24
5 27 5 3 2 15 -9 27 -10 11 -12 17 -5 13 6 -4 12 -2 12 3 0 6 -4 11 -8 11 -5
0 -9 7 -9 15 0 13 2 13 17 0 15 -14 19 -14 31 1 11 13 11 18 2 21 -15 5 -18
23 -4 23 5 0 14 -7 22 -16z m29 6 c0 -5 -4 -10 -10 -10 -5 0 -10 5 -10 10 0 6
5 10 10 10 6 0 10 -4 10 -10z m1420 5 c0 -11 -72 -77 -77 -71 -3 3 -1 12 5 19
7 8 8 18 4 22 -4 5 -1 5 6 1 9 -5 19 0 28 13 14 19 34 29 34 16z m-1416 -36
c-3 -6 0 -15 7 -20 7 -4 10 -11 7 -15 -4 -3 -15 1 -24 11 -15 14 -15 18 -3 26
19 12 22 11 13 -2z m1336 -9 c0 -5 -5 -10 -12 -10 -8 0 -6 -6 4 -17 14 -13 20
-14 32 -3 13 10 16 10 16 -4 0 -10 -4 -14 -10 -11 -19 11 -10 -7 12 -26 11
-11 18 -22 14 -26 -4 -4 -25 11 -47 33 -27 28 -38 45 -33 57 7 18 24 23 24 7z
m85 -34 c0 -18 -3 -22 -13 -14 -9 8 -9 14 -1 24 15 18 14 18 14 -10z m-47 -74
l43 -42 -26 -26 c-15 -14 -29 -23 -33 -20 -3 4 0 11 8 17 13 8 13 10 0 18 -8
6 -11 13 -7 18 5 4 12 1 17 -7 5 -8 12 -12 15 -8 3 3 -6 18 -20 32 -24 24 -27
25 -42 10 -14 -13 -14 -17 -2 -25 12 -8 12 -10 -1 -19 -13 -9 -13 -11 0 -19 8
-6 11 -13 8 -17 -4 -3 -15 1 -24 11 -14 14 -15 18 -3 25 7 5 10 12 6 16 -4 4
-16 -3 -27 -17 -18 -19 -23 -21 -30 -9 -13 20 -12 26 6 44 8 9 13 20 9 26 -3
6 1 7 9 4 9 -3 16 -1 16 5 0 6 -5 11 -10 11 -6 0 -5 8 2 19 14 23 17 21 86
-47z m-1398 19 c0 -5 -6 -12 -12 -14 -10 -4 -9 -8 2 -16 12 -8 11 -13 -7 -29
l-22 -19 21 -21 c12 -12 19 -25 15 -28 -11 -11 -48 38 -42 55 3 8 0 18 -6 22
-8 5 -5 15 12 32 25 27 39 33 39 18z m1380 -41 c0 -5 -4 -10 -10 -10 -5 0 -10
5 -10 10 0 6 5 10 10 10 6 0 10 -4 10 -10z m-1373 -45 c8 -9 13 -19 10 -22 -6
-5 -37 21 -37 31 0 10 11 6 27 -9z m1373 5 c0 -5 -4 -10 -10 -10 -5 0 -10 5
-10 10 0 6 5 10 10 10 6 0 10 -4 10 -10z m-62 -46 c3 4 0 11 -8 16 -8 5 -11
12 -8 16 4 3 15 -1 24 -11 12 -12 14 -19 6 -24 -8 -5 -4 -14 14 -30 20 -18 28
-20 40 -10 11 9 14 8 14 -6 0 -10 -3 -15 -7 -12 -3 4 -12 2 -18 -3 -9 -7 -16
-6 -25 5 -7 8 -18 15 -24 15 -6 0 -4 -4 4 -10 8 -5 11 -12 8 -15 -11 -12 -30
6 -24 22 4 9 1 22 -5 29 -14 17 -33 19 -23 2 4 -6 3 -8 -3 -5 -6 4 -18 -2 -28
-13 -13 -14 -22 -17 -31 -10 -8 8 -14 7 -17 -2 -3 -7 -6 -8 -6 -2 -1 6 8 19
19 29 11 10 20 25 20 33 0 12 3 12 16 1 14 -12 14 -14 -2 -19 -11 -4 -14 -9
-7 -13 6 -4 17 1 24 10 11 13 11 17 2 20 -7 3 -13 12 -13 21 1 13 7 10 26 -12
14 -15 28 -25 32 -22z m62 6 c0 -5 -4 -10 -10 -10 -5 0 -10 5 -10 10 0 6 5 10
10 10 6 0 10 -4 10 -10z m40 5 c0 -3 -10 -16 -23 -29 -20 -20 -26 -22 -42 -10
-10 8 -15 17 -11 21 4 4 11 2 15 -5 6 -9 12 -7 26 8 17 19 35 26 35 15z
m-1426 -47 c-3 -5 -12 -1 -20 9 -20 27 -17 39 6 18 11 -10 17 -22 14 -27z m49
6 c20 -18 32 -23 39 -16 8 8 14 7 23 -1 19 -20 39 -61 36 -76 -1 -8 2 -10 11
-5 7 4 10 4 6 -1 -4 -4 -3 -14 4 -22 6 -7 8 -16 5 -20 -7 -6 -46 36 -47 50 0
4 5 7 11 7 5 0 7 5 3 11 -4 8 -9 7 -15 -2 -7 -12 -11 -11 -26 3 -9 10 -13 21
-9 25 4 4 11 1 16 -7 5 -8 11 -12 15 -9 3 3 -4 14 -15 24 -11 10 -20 13 -20 7
0 -7 -3 -12 -7 -12 -10 0 -73 56 -73 64 0 13 16 5 43 -20z m55 -94 c35 -35 59
-66 53 -68 -6 -2 -11 -8 -11 -14 0 -7 5 -7 13 1 10 8 20 4 41 -18 19 -20 22
-28 11 -28 -8 0 -15 5 -15 10 0 5 -6 7 -13 4 -20 -7 -63 31 -49 45 8 8 7 15
-4 26 -8 8 -18 11 -22 8 -3 -4 0 -11 8 -16 8 -5 11 -12 7 -16 -12 -12 -48 38
-41 58 7 22 -2 23 -22 3 -9 -8 -12 -20 -8 -26 4 -8 3 -9 -5 -5 -7 5 -9 16 -5
28 5 17 3 20 -10 15 -10 -4 -15 -3 -11 3 3 5 -3 19 -14 31 -15 17 -17 24 -8
34 15 16 20 12 105 -75z m1037 -16 c5 -41 41 -141 65 -181 l19 -32 -26 -21
c-36 -28 -171 -69 -259 -78 -41 -5 -74 -5 -74 -2 0 4 -10 6 -22 6 -18 -1 -25
8 -36 38 l-13 40 62 62 c34 34 73 68 88 75 14 8 45 26 67 42 23 15 46 27 51
27 5 0 23 13 39 29 16 16 30 28 32 27 1 -2 4 -16 7 -32z m-945 -44 c0 -5 -4
-10 -10 -10 -5 0 -10 5 -10 10 0 6 5 10 10 10 6 0 10 -4 10 -10z m40 -21 c0
-6 -4 -7 -10 -4 -5 3 -10 11 -10 16 0 6 5 7 10 4 6 -3 10 -11 10 -16z m1090
-148 c0 -12 -29 -35 -36 -28 -7 6 17 36 29 37 4 0 7 -4 7 -9z m0 -41 c0 -5 -4
-10 -10 -10 -5 0 -10 5 -10 10 0 6 5 10 10 10 6 0 10 -4 10 -10z m-550 -50 c0
-5 -5 -10 -11 -10 -5 0 -7 5 -4 10 3 6 8 10 11 10 2 0 4 -4 4 -10z"/>
<path d="M291 1694 c-12 -14 -20 -28 -16 -32 3 -3 10 0 16 8 8 13 10 13 18 0
6 -8 13 -11 18 -7 4 5 1 13 -7 18 -11 8 -12 12 -2 16 13 5 17 23 5 22 -5 0
-19 -11 -32 -25z"/>
<path d="M540 1711 c0 -5 6 -12 13 -14 9 -4 8 -8 -3 -16 -8 -5 -11 -13 -7 -18
5 -4 12 -1 18 7 8 13 10 13 18 0 6 -8 13 -11 17 -8 3 4 -5 18 -19 32 -28 28
-37 32 -37 17z"/>
<path d="M721 1704 c-18 -21 -6 -30 14 -11 8 9 15 18 15 21 0 11 -15 5 -29
-10z"/>
<path d="M960 1670 c0 -5 5 -10 10 -10 6 0 10 5 10 10 0 6 -4 10 -10 10 -5 0
-10 -4 -10 -10z"/>
<path d="M1000 1631 c0 -5 6 -12 13 -14 9 -4 8 -8 -3 -16 -8 -5 -11 -13 -8
-17 4 -3 14 1 23 10 15 14 15 18 1 31 -17 17 -26 19 -26 6z"/>
<path d="M1150 1711 c0 -5 6 -12 13 -14 9 -4 8 -8 -3 -16 -13 -10 -13 -12 0
-21 13 -9 13 -11 0 -19 -8 -6 -11 -13 -7 -17 4 -4 16 3 27 17 17 19 23 21 30
10 7 -12 11 -11 25 2 15 16 15 18 0 34 -14 13 -18 14 -25 2 -7 -11 -13 -9 -28
9 -20 23 -32 28 -32 13z m40 -41 c0 -5 -4 -10 -10 -10 -5 0 -10 5 -10 10 0 6
5 10 10 10 6 0 10 -4 10 -10z m40 0 c0 -5 -4 -10 -10 -10 -5 0 -10 5 -10 10 0
6 5 10 10 10 6 0 10 -4 10 -10z"/>
<path d="M1371 1704 c-18 -21 -6 -30 14 -11 8 9 15 18 15 21 0 11 -15 5 -29
-10z"/>
<path d="M1622 1684 c-11 -12 -8 -19 19 -45 26 -24 30 -32 19 -39 -8 -5 -11
-12 -8 -16 4 -3 18 6 33 20 l26 26 -35 35 c-40 40 -37 39 -54 19z m45 -30 c14
-14 23 -28 20 -31 -6 -5 -57 41 -57 52 0 11 12 4 37 -21z"/>
<path d="M100 1610 c0 -5 5 -10 10 -10 6 0 10 5 10 10 0 6 -4 10 -10 10 -5 0
-10 -4 -10 -10z"/>
<path d="M861 1536 c-8 -9 -11 -19 -7 -23 9 -9 29 13 24 27 -2 8 -8 7 -17 -4z"/>
<path d="M927 1523 c-3 -3 1 -12 9 -20 8 -9 18 -13 21 -10 3 3 -1 13 -10 21
-8 8 -17 12 -20 9z"/>
<path d="M1440 1650 c0 -5 5 -10 10 -10 6 0 10 5 10 10 0 6 -4 10 -10 10 -5 0
-10 -4 -10 -10z"/>
<path d="M1535 1550 c4 -6 11 -8 16 -5 14 9 11 15 -7 15 -8 0 -12 -5 -9 -10z"/>
<path d="M1576 1523 c-3 -3 13 -23 36 -45 31 -30 38 -42 28 -48 -11 -7 -10
-11 4 -25 9 -10 20 -14 24 -11 3 4 0 11 -8 17 -13 8 -13 10 -1 18 11 7 4 19
-32 54 -25 25 -48 43 -51 40z"/>
<path d="M277 1523 c-3 -3 5 -16 19 -30 14 -14 28 -23 31 -20 3 3 -6 17 -20
31 -14 14 -27 22 -30 19z"/>
<path d="M430 1549 c0 -5 5 -7 10 -4 6 3 10 8 10 11 0 2 -4 4 -10 4 -5 0 -10
-5 -10 -11z"/>
<path d="M540 1590 c0 -5 5 -10 10 -10 6 0 10 5 10 10 0 6 -4 10 -10 10 -5 0
-10 -4 -10 -10z"/>
<path d="M1325 1541 c-3 -5 -1 -12 5 -16 5 -3 10 1 10 9 0 18 -6 21 -15 7z"/>
<path d="M801 1394 c-18 -21 -6 -30 14 -11 8 9 15 18 15 21 0 11 -15 5 -29
-10z"/>
<path d="M1270 1520 c0 -5 5 -10 11 -10 5 0 7 5 4 10 -3 6 -8 10 -11 10 -2 0
-4 -4 -4 -10z"/>
<path d="M71 1434 c-18 -21 -6 -30 14 -11 8 9 15 18 15 21 0 11 -15 5 -29 -10z"/>
<path d="M60 1271 c0 -5 6 -12 13 -14 9 -4 8 -8 -3 -16 -12 -8 -11 -13 10 -31
20 -17 22 -23 10 -30 -8 -5 -11 -12 -8 -16 4 -3 15 1 24 10 15 16 15 18 -7 37
-19 16 -21 22 -10 29 12 7 12 11 -2 24 -18 18 -27 20 -27 7z"/>
<path d="M85 1130 c3 -5 8 -10 11 -10 2 0 4 5 4 10 0 6 -5 10 -11 10 -5 0 -7
-4 -4 -10z"/>
<path d="M512 1494 c-11 -12 -10 -17 3 -30 9 -9 19 -13 23 -10 3 4 0 12 -8 17
-11 8 -12 12 -2 16 13 5 17 23 5 23 -5 -1 -14 -7 -21 -16z"/>
<path d="M560 1424 c0 -10 31 -36 37 -31 3 3 -2 13 -10 22 -16 15 -27 19 -27
9z"/>
<path d="M505 1360 c3 -5 8 -10 11 -10 2 0 4 5 4 10 0 6 -5 10 -11 10 -5 0 -7
-4 -4 -10z"/>
<path d="M250 1460 c0 -5 5 -10 10 -10 6 0 10 5 10 10 0 6 -4 10 -10 10 -5 0
-10 -4 -10 -10z"/>
<path d="M712 1464 c-21 -22 -22 -26 -8 -40 14 -14 18 -13 41 11 23 22 24 27
11 40 -18 18 -16 19 -44 -11z m38 0 c0 -3 -7 -12 -15 -21 -20 -19 -32 -10 -14
11 14 15 29 21 29 10z"/>
<path d="M1190 1481 c0 -5 6 -12 13 -14 9 -4 9 -8 -2 -15 -12 -9 -12 -13 2
-27 15 -15 18 -15 33 -1 14 14 13 18 -10 41 -27 27 -36 31 -36 16z m40 -41 c0
-5 -4 -10 -10 -10 -5 0 -10 5 -10 10 0 6 5 10 10 10 6 0 10 -4 10 -10z"/>
<path d="M1371 1474 c-7 -8 -10 -18 -6 -22 3 -3 10 0 15 8 7 12 13 10 30 -9
11 -14 23 -22 26 -18 5 5 -40 58 -48 57 -2 -1 -9 -8 -17 -16z"/>
<path d="M112 1394 c-11 -12 -10 -17 2 -30 15 -14 17 -14 32 0 14 14 14 18 0
31 -18 18 -18 18 -34 -1z m28 -14 c0 -5 -4 -10 -10 -10 -5 0 -10 5 -10 10 0 6
5 10 10 10 6 0 10 -4 10 -10z"/>
<path d="M1293 1328 c-1 -33 8 -35 32 -8 20 23 13 39 -9 21 -11 -9 -15 -9 -19
1 -2 7 -4 1 -4 -14z"/>
<path d="M1630 1230 c0 -5 5 -10 10 -10 6 0 10 5 10 10 0 6 -4 10 -10 10 -5 0
-10 -4 -10 -10z"/>
<path d="M1535 1170 c3 -5 8 -10 11 -10 2 0 4 5 4 10 0 6 -5 10 -11 10 -5 0
-7 -4 -4 -10z"/>
<path d="M1400 1380 c0 -5 5 -10 10 -10 6 0 10 5 10 10 0 6 -4 10 -10 10 -5 0
-10 -4 -10 -10z"/>
<path d="M1515 1310 c-3 -5 1 -10 10 -10 9 0 13 5 10 10 -3 6 -8 10 -10 10 -2
0 -7 -4 -10 -10z"/>
<path d="M659 1356 c9 -10 9 -16 1 -21 -8 -5 -8 -11 0 -20 7 -9 6 -16 -5 -25
-8 -7 -15 -17 -15 -22 0 -5 10 1 23 14 23 24 34 68 16 68 -6 0 -7 5 -4 10 3 6
-1 10 -11 10 -13 0 -14 -3 -5 -14z"/>
<path d="M730 1290 c0 -5 5 -10 10 -10 6 0 10 5 10 10 0 6 -4 10 -10 10 -5 0
-10 -4 -10 -10z"/>
<path d="M710 1230 c0 -5 5 -10 10 -10 6 0 10 5 10 10 0 6 -4 10 -10 10 -5 0
-10 -4 -10 -10z"/>
<path d="M180 1310 c0 -5 5 -10 11 -10 5 0 7 5 4 10 -3 6 -8 10 -11 10 -2 0
-4 -4 -4 -10z"/>
<path d="M290 1270 c0 -5 5 -10 10 -10 6 0 10 5 10 10 0 6 -4 10 -10 10 -5 0
-10 -4 -10 -10z"/>
<path d="M250 1230 c0 -5 5 -10 10 -10 6 0 10 5 10 10 0 6 -4 10 -10 10 -5 0
-10 -4 -10 -10z"/>
<path d="M485 1310 c-3 -5 -1 -10 4 -10 6 0 11 5 11 10 0 6 -2 10 -4 10 -3 0
-8 -4 -11 -10z"/>
<path d="M1372 1285 c-11 -13 -9 -19 13 -41 23 -23 27 -24 41 -10 14 14 13 18
-10 41 -29 29 -27 29 -44 10z m35 -20 c8 -9 13 -19 10 -22 -6 -5 -37 21 -37
31 0 10 11 6 27 -9z"/>
<path d="M560 1270 c0 -5 5 -10 10 -10 6 0 10 5 10 10 0 6 -4 10 -10 10 -5 0
-10 -4 -10 -10z"/>
<path d="M214 1152 c3 -5 -4 -15 -15 -22 -19 -15 -28 -36 -9 -25 6 3 10 -1 10
-10 0 -9 -4 -13 -10 -10 -19 11 -10 -10 9 -25 11 -7 18 -17 15 -22 -10 -16 7
-7 30 15 12 12 23 31 23 42 0 11 -11 30 -23 42 -23 22 -40 31 -30 15z m32 -33
c10 -11 14 -19 9 -17 -6 2 -10 -1 -10 -7 0 -5 4 -9 10 -7 5 2 1 -6 -9 -17 -15
-16 -22 -18 -33 -10 -9 8 -10 15 -3 24 8 9 8 15 0 20 -8 5 -8 11 1 21 14 18
12 18 35 -7z"/>
<path d="M215 1110 c3 -5 8 -10 11 -10 2 0 4 5 4 10 0 6 -5 10 -11 10 -5 0 -7
-4 -4 -10z"/>
<path d="M215 1080 c-3 -5 -1 -10 4 -10 6 0 11 5 11 10 0 6 -2 10 -4 10 -3 0
-8 -4 -11 -10z"/>
<path d="M421 1124 c-7 -8 -11 -17 -9 -20 3 -2 13 5 23 16 10 11 14 20 9 20
-5 -1 -15 -8 -23 -16z"/>
<path d="M341 1164 c-18 -21 -6 -30 14 -11 8 9 15 18 15 21 0 11 -15 5 -29
-10z"/>
<path d="M221 896 c-9 -10 -9 -16 -1 -21 8 -5 8 -11 -1 -21 -6 -8 -7 -14 -2
-14 5 0 15 9 23 19 7 11 17 18 22 15 4 -3 8 2 8 11 0 9 -4 13 -10 10 -5 -3
-10 -1 -10 4 0 15 -15 14 -29 -3z m24 -5 c3 -5 1 -12 -5 -16 -5 -3 -10 1 -10
9 0 18 6 21 15 7z"/>
<path d="M310 600 c0 -5 5 -10 10 -10 6 0 10 5 10 10 0 6 -4 10 -10 10 -5 0
-10 -4 -10 -10z"/>
<path d="M330 540 c0 -5 5 -10 10 -10 6 0 10 5 10 10 0 6 -4 10 -10 10 -5 0
-10 -4 -10 -10z"/>
<path d="M1610 641 c0 -5 6 -11 13 -14 7 -2 -1 -16 -22 -36 -19 -17 -31 -34
-28 -37 3 -3 22 10 42 30 32 32 34 38 21 51 -17 17 -26 19 -26 6z"/>
<path d="M250 580 c0 -5 5 -10 10 -10 6 0 10 5 10 10 0 6 -4 10 -10 10 -5 0
-10 -4 -10 -10z"/>
<path d="M1515 460 c3 -5 8 -10 11 -10 2 0 4 5 4 10 0 6 -5 10 -11 10 -5 0 -7
-4 -4 -10z"/>
<path d="M290 436 c0 -12 51 -58 57 -53 5 6 -7 20 -40 46 -9 7 -17 10 -17 7z"/>
<path d="M370 350 c0 -5 5 -10 10 -10 6 0 10 5 10 10 0 6 -4 10 -10 10 -5 0
-10 -4 -10 -10z"/>
<path d="M445 270 c3 -5 8 -10 11 -10 2 0 4 5 4 10 0 6 -5 10 -11 10 -5 0 -7
-4 -4 -10z"/>
<path d="M1714 1725 c29 -29 33 -30 33 -10 0 8 -4 12 -8 10 -3 -3 -12 2 -19
10 -7 8 -17 15 -22 15 -5 0 2 -11 16 -25z"/>
<path d="M1733 1535 c0 -14 3 -25 6 -25 4 0 7 11 7 25 0 14 -3 25 -7 25 -3 0
-6 -11 -6 -25z"/>
<path d="M923 1180 c-13 -5 -23 -7 -23 -4 0 2 -16 -11 -36 -31 -22 -22 -38
-49 -41 -70 -7 -41 8 -46 27 -9 22 40 88 74 146 74 63 -1 121 -27 183 -85 50
-46 71 -51 71 -15 0 28 -94 106 -156 129 -57 22 -133 26 -171 11z"/>
<path d="M926 1077 c-36 -26 -29 -215 9 -247 8 -6 11 -18 8 -26 -8 -20 48 -18
86 4 53 29 52 122 -2 232 -18 37 -28 46 -52 48 -16 2 -39 -3 -49 -11z m85
-161 c5 3 9 -17 9 -45 0 -49 -1 -51 -29 -51 -21 0 -30 6 -35 23 -9 35 -7 44 8
24 12 -15 14 -13 21 25 4 24 9 37 12 30 3 -6 9 -10 14 -6z"/>
<path d="M426 998 c-12 -39 -12 -63 0 -131 14 -85 22 -102 57 -135 31 -29 48
-22 71 30 40 94 -24 248 -103 248 -12 0 -23 -6 -25 -12z m94 -219 c0 -46 -15
-44 -35 4 -17 40 -10 60 16 46 14 -7 19 -21 19 -50z"/>
<path d="M680 705 c0 -10 -15 -31 -32 -47 l-32 -30 27 -24 c36 -31 54 -31 34
-1 -14 21 -13 24 4 35 20 13 27 66 9 77 -5 3 -10 -1 -10 -10z"/>
<path d="M50 561 c0 -10 19 -25 25 -20 1 2 -3 10 -11 17 -8 7 -14 8 -14 3z"/>
<path d="M1710 459 c0 -5 5 -7 10 -4 6 3 10 8 10 11 0 2 -4 4 -10 4 -5 0 -10
-5 -10 -11z"/>
<path d="M905 455 c-5 -2 -56 -9 -112 -16 -56 -6 -107 -15 -113 -19 -16 -10
50 -119 95 -159 34 -30 37 -30 64 -16 37 19 68 68 81 133 11 50 5 82 -15 77z
m-25 -76 c-13 -46 -44 -94 -62 -97 -19 -4 -103 97 -91 109 10 9 51 15 115 18
l47 1 -9 -31z"/>
<path d="M1540 225 c-7 -8 -9 -15 -6 -15 4 0 14 7 22 15 9 8 11 15 6 15 -5 0
-15 -7 -22 -15z"/>
<path d="M1020 79 c0 -5 5 -7 10 -4 6 3 10 8 10 11 0 2 -4 4 -10 4 -5 0 -10
-5 -10 -11z"/>
<path d="M1540 61 c0 -10 19 -25 25 -20 1 2 -3 10 -11 17 -8 7 -14 8 -14 3z"/>
</g>
</svg>
